<svg width="36" height="36" viewBox="0 0 36 36" fill="none" xmlns="http://www.w3.org/2000/svg">
<path d="M17.9985 11.0656C16.159 11.0656 14.3948 11.7963 13.094 13.0971C11.7933 14.3978 11.0625 16.162 11.0625 18.0016C11.0625 19.8411 11.7933 21.6053 13.094 22.906C14.3948 24.2068 16.159 24.9376 17.9985 24.9376C19.838 24.9376 21.6022 24.2068 22.903 22.906C24.2037 21.6053 24.9345 19.8411 24.9345 18.0016C24.9345 16.162 24.2037 14.3978 22.903 13.0971C21.6022 11.7963 19.838 11.0656 17.9985 11.0656V11.0656ZM17.9985 22.5061C16.8034 22.5061 15.6573 22.0313 14.8123 21.1863C13.9672 20.3412 13.4925 19.1951 13.4925 18.0001C13.4925 16.805 13.9672 15.6589 14.8123 14.8138C15.6573 13.9688 16.8034 13.4941 17.9985 13.4941C19.1936 13.4941 20.3397 13.9688 21.1847 14.8138C22.0298 15.6589 22.5045 16.805 22.5045 18.0001C22.5045 19.1951 22.0298 20.3412 21.1847 21.1863C20.3397 22.0313 19.1936 22.5061 17.9985 22.5061V22.5061Z" fill="#37323E"/>
<path d="M25.209 12.4275C26.102 12.4275 26.826 11.7035 26.826 10.8105C26.826 9.91744 26.102 9.19348 25.209 9.19348C24.3159 9.19348 23.592 9.91744 23.592 10.8105C23.592 11.7035 24.3159 12.4275 25.209 12.4275Z" fill="#37323E"/>
<path d="M30.7995 9.16645C30.4522 8.26972 29.9216 7.45537 29.2415 6.77553C28.5614 6.0957 27.7469 5.56535 26.85 5.21845C25.8005 4.82448 24.6918 4.61146 23.571 4.58845C22.1265 4.52545 21.669 4.50745 18.006 4.50745C14.343 4.50745 13.8735 4.50745 12.441 4.58845C11.3211 4.61028 10.2131 4.82335 9.16499 5.21845C8.26789 5.56495 7.45314 6.09515 6.77299 6.77504C6.09285 7.45493 5.56233 8.26948 5.21549 9.16645C4.82145 10.2159 4.60891 11.3247 4.58699 12.4454C4.52249 13.8884 4.50299 14.3459 4.50299 18.0104C4.50299 21.6734 4.50299 22.1399 4.58699 23.5754C4.60949 24.6974 4.82099 25.8044 5.21549 26.8559C5.56331 27.7526 6.09433 28.5668 6.77464 29.2466C7.45495 29.9264 8.26959 30.4568 9.16649 30.8039C10.2126 31.2137 11.321 31.442 12.444 31.4789C13.8885 31.5419 14.346 31.5614 18.009 31.5614C21.672 31.5614 22.1415 31.5614 23.574 31.4789C24.6946 31.4562 25.8033 31.2436 26.853 30.8504C27.7496 30.5027 28.5639 29.9719 29.2439 29.2919C29.924 28.6119 30.4548 27.7976 30.8025 26.9009C31.197 25.8509 31.4085 24.7439 31.431 23.6219C31.4955 22.1789 31.515 21.7214 31.515 18.0569C31.515 14.3924 31.515 13.9274 31.431 12.4919C31.4135 11.3554 31.1999 10.2303 30.7995 9.16645V9.16645ZM28.9725 23.4644C28.9628 24.3289 28.805 25.1853 28.506 25.9964C28.2807 26.5797 27.9359 27.1094 27.4936 27.5515C27.0513 27.9935 26.5214 28.338 25.938 28.5629C25.1358 28.8606 24.2885 29.0184 23.433 29.0294C22.008 29.0954 21.606 29.1119 17.952 29.1119C14.295 29.1119 13.9215 29.1119 12.4695 29.0294C11.6144 29.019 10.7675 28.8612 9.96599 28.5629C9.38052 28.3394 8.84849 27.9955 8.40433 27.5534C7.96016 27.1113 7.61374 26.5809 7.38749 25.9964C7.09266 25.194 6.93496 24.3477 6.92099 23.4929C6.85649 22.0679 6.84149 21.6659 6.84149 18.0119C6.84149 14.3564 6.84149 13.9829 6.92099 12.5294C6.93069 11.6655 7.08847 10.8096 7.38749 9.99895C7.84499 8.81545 8.78249 7.88395 9.96599 7.43095C10.7679 7.13416 11.6145 6.97639 12.4695 6.96445C13.896 6.89995 14.2965 6.88195 17.952 6.88195C21.6075 6.88195 21.9825 6.88195 23.433 6.96445C24.2886 6.97474 25.136 7.13255 25.938 7.43095C26.5214 7.65636 27.0512 8.00125 27.4934 8.44349C27.9357 8.88573 28.2806 9.41555 28.506 9.99895C28.8008 10.8014 28.9585 11.6477 28.9725 12.5024C29.037 13.9289 29.0535 14.3294 29.0535 17.9849C29.0535 21.6389 29.0535 22.0319 28.989 23.4659H28.9725V23.4644Z" fill="#37323E"/>
</svg>
