<svg width="36" height="36" viewBox="0 0 36 36" fill="none" xmlns="http://www.w3.org/2000/svg">
<path d="M10.4925 18C10.4925 22.1415 13.8615 25.5105 18.003 25.5105C22.1445 25.5105 25.5135 22.1415 25.5135 18C25.5135 13.8585 22.1445 10.4895 18.003 10.4895C13.8615 10.4895 10.4925 13.8585 10.4925 18ZM16.5 28.5H19.5V33H16.5V28.5ZM16.5 3H19.5V7.5H16.5V3ZM3 16.5H7.5V19.5H3V16.5ZM28.5 16.5H33V19.5H28.5V16.5ZM8.4555 29.667L6.3345 27.546L9.516 24.3645L11.637 26.4855L8.4555 29.667ZM24.363 9.516L27.546 6.333L29.667 8.454L26.484 11.637L24.363 9.516ZM9.516 11.6385L6.3345 8.4555L8.457 6.3345L11.637 9.5175L9.516 11.6385ZM29.667 27.546L27.546 29.667L24.363 26.484L26.484 24.363L29.667 27.546Z" fill="#EC9A29"/>
</svg>
